<svg width="24" height="22" viewBox="0 0 24 22" fill="none" xmlns="http://www.w3.org/2000/svg">
<path fill-rule="evenodd" clip-rule="evenodd" d="M12 2.33335C11.1821 2.33342 10.3854 2.59382 9.72534 3.07684C9.06527 3.55986 8.57607 4.24043 8.32858 5.02001L7.46191 7.75001H16.5381L15.6714 5.02001C15.4239 4.24043 14.9347 3.55986 14.2747 3.07684C13.6146 2.59382 12.8179 2.33342 12 2.33335ZM18.8109 7.75001L17.7362 4.3646C17.3498 3.14636 16.5856 2.08279 15.5543 1.32795C14.5229 0.57312 13.2781 0.166229 12 0.166229C10.7219 0.166229 9.47708 0.57312 8.44574 1.32795C7.41441 2.08279 6.65017 3.14636 6.26375 4.3646L5.18908 7.75001H2.627C2.28873 7.75002 1.95516 7.82924 1.653 7.98131C1.35084 8.13338 1.08849 8.35409 0.886947 8.62576C0.685404 8.89744 0.55027 9.21253 0.492367 9.5458C0.434464 9.87908 0.455399 10.2213 0.553497 10.545L1.77116 14.5642L3.27483 19.5259C3.47707 20.1933 3.88864 20.7779 4.44872 21.1935C5.0088 21.609 5.68769 21.8333 6.38508 21.8333H17.6149C18.3121 21.8331 18.9908 21.6086 19.5506 21.1931C20.1105 20.7776 20.5219 20.1931 20.7241 19.5259L22.2288 14.5642L23.4465 10.545C23.5446 10.2213 23.5655 9.87908 23.5076 9.5458C23.4497 9.21253 23.3146 8.89744 23.113 8.62576C22.9115 8.35409 22.6492 8.13338 22.347 7.98131C22.0448 7.82924 21.7113 7.75002 21.373 7.75001H18.8109ZM5.981 9.91668H2.627L3.61175 13.1667H7.70675L7.26258 9.91668H5.981ZM9.44983 9.91668L9.89291 13.1667H14.1071L14.5512 9.91668H9.44875H9.44983ZM16.7374 9.91668L16.2932 13.1667H20.3882L21.373 9.91668H16.7374ZM19.7317 15.3333H15.9975L15.4071 19.6667H17.6138C17.8463 19.6667 18.0726 19.5919 18.2593 19.4534C18.446 19.3149 18.5832 19.12 18.6506 18.8975L19.7307 15.3333H19.7317ZM13.2209 19.6667L13.8113 15.3333H10.1876L10.7791 19.6667H13.2209ZM8.59183 19.6667L8.00141 15.3333H4.26825L5.34833 18.8975C5.41575 19.12 5.55293 19.3149 5.73963 19.4534C5.92632 19.5919 6.15262 19.6667 6.38508 19.6667H8.59183Z" fill="white"/>
</svg>
